<?xml version="1.0" encoding="UTF-8"?>
<!DOCTYPE svg
PUBLIC "-//W3C//DTD SVG 1.1//EN"
       "http://www.w3.org/Graphics/SVG/1.1/DTD/svg11.dtd">
<svg viewBox="-2 8 1634 1264" width="1636px" height="1256px" xmlns="http://www.w3.org/2000/svg" version="1.1">
   <line x1="400" y1="133" x2="390" y2="133" style="stroke:#b0b;stroke-width:1;"/>
   <line x1="394" y1="265" x2="404" y2="265" style="stroke:#b0b;stroke-width:1;"/>
   <line x1="390" y1="133" x2="394" y2="265" style="stroke:#b0b;stroke-width:1;"/>
   <line x1="392.5" y1="133" x2="396.03553390593" y2="136.53553390593" style="stroke:#b0b;stroke-width:2;"/>
   <line x1="392.5" y1="133" x2="396.03553390593" y2="129.46446609407" style="stroke:#b0b;stroke-width:2;"/>
   <line x1="399" y1="265" x2="395.46446609407" y2="268.53553390593" style="stroke:#b0b;stroke-width:2;"/>
   <line x1="399" y1="265" x2="395.46446609407" y2="261.46446609407" style="stroke:#b0b;stroke-width:2;"/>
   <line x1="507" y1="1008" x2="517" y2="1008" style="stroke:#333;stroke-width:1;"/>
   <line x1="736" y1="1019" x2="746" y2="1019" style="stroke:#333;stroke-width:1;"/>
   <line x1="517" y1="1008" x2="736" y2="1019" style="stroke:#333;stroke-width:1;"/>
   <line x1="514.5" y1="1008" x2="510.96446609407" y2="1011.5355339059" style="stroke:#333;stroke-width:2;"/>
   <line x1="514.5" y1="1008" x2="510.96446609407" y2="1004.4644660941" style="stroke:#333;stroke-width:2;"/>
   <line x1="741" y1="1019" x2="737.46446609407" y2="1022.5355339059" style="stroke:#333;stroke-width:2;"/>
   <line x1="741" y1="1019" x2="737.46446609407" y2="1015.4644660941" style="stroke:#333;stroke-width:2;"/>
   <line x1="185" y1="896" x2="195" y2="896" style="stroke:#cb0;stroke-width:1;"/>
   <line x1="387" y1="908" x2="397" y2="908" style="stroke:#cb0;stroke-width:1;"/>
   <line x1="195" y1="896" x2="387" y2="908" style="stroke:#cb0;stroke-width:1;"/>
   <line x1="192.5" y1="896" x2="188.96446609407" y2="899.53553390593" style="stroke:#cb0;stroke-width:2;"/>
   <line x1="192.5" y1="896" x2="188.96446609407" y2="892.46446609407" style="stroke:#cb0;stroke-width:2;"/>
   <line x1="392" y1="908" x2="388.46446609407" y2="911.53553390593" style="stroke:#cb0;stroke-width:2;"/>
   <line x1="392" y1="908" x2="388.46446609407" y2="904.46446609407" style="stroke:#cb0;stroke-width:2;"/>
   <line x1="185" y1="916" x2="195" y2="916" style="stroke:#bbb;stroke-width:1;"/>
   <line x1="394" y1="265" x2="404" y2="265" style="stroke:#bbb;stroke-width:1;"/>
   <line x1="195" y1="916" x2="394" y2="265" style="stroke:#bbb;stroke-width:1;"/>
   <line x1="192.5" y1="916" x2="188.96446609407" y2="919.53553390593" style="stroke:#bbb;stroke-width:2;"/>
   <line x1="192.5" y1="916" x2="188.96446609407" y2="912.46446609407" style="stroke:#bbb;stroke-width:2;"/>
   <line x1="399" y1="265" x2="395.46446609407" y2="268.53553390593" style="stroke:#bbb;stroke-width:2;"/>
   <line x1="399" y1="265" x2="395.46446609407" y2="261.46446609407" style="stroke:#bbb;stroke-width:2;"/>
   <line x1="499" y1="1199" x2="489" y2="1199" style="stroke:#bbb;stroke-width:1;"/>
   <line x1="230" y1="1114" x2="220" y2="1114" style="stroke:#bbb;stroke-width:1;"/>
   <line x1="489" y1="1199" x2="230" y2="1114" style="stroke:#bbb;stroke-width:1;"/>
   <line x1="491.5" y1="1199" x2="495.03553390593" y2="1202.5355339059" style="stroke:#bbb;stroke-width:2;"/>
   <line x1="491.5" y1="1199" x2="495.03553390593" y2="1195.4644660941" style="stroke:#bbb;stroke-width:2;"/>
   <line x1="225" y1="1114" x2="228.53553390593" y2="1117.5355339059" style="stroke:#bbb;stroke-width:2;"/>
   <line x1="225" y1="1114" x2="228.53553390593" y2="1110.4644660941" style="stroke:#bbb;stroke-width:2;"/>
   <line x1="1404" y1="632" x2="1394" y2="632" style="stroke:#cb0;stroke-width:1;"/>
   <line x1="1194" y1="653" x2="1184" y2="653" style="stroke:#cb0;stroke-width:1;"/>
   <line x1="1394" y1="632" x2="1194" y2="653" style="stroke:#cb0;stroke-width:1;"/>
   <line x1="1396.5" y1="632" x2="1400.0355339059" y2="635.53553390593" style="stroke:#cb0;stroke-width:2;"/>
   <line x1="1396.5" y1="632" x2="1400.0355339059" y2="628.46446609407" style="stroke:#cb0;stroke-width:2;"/>
   <line x1="1189" y1="653" x2="1192.5355339059" y2="656.53553390593" style="stroke:#cb0;stroke-width:2;"/>
   <line x1="1189" y1="653" x2="1192.5355339059" y2="649.46446609407" style="stroke:#cb0;stroke-width:2;"/>
   <line x1="720" y1="411" x2="710" y2="411" style="stroke:#0bf;stroke-width:1;"/>
   <line x1="601" y1="265" x2="591" y2="265" style="stroke:#0bf;stroke-width:1;"/>
   <line x1="710" y1="411" x2="601" y2="265" style="stroke:#0bf;stroke-width:1;"/>
   <line x1="712.5" y1="411" x2="716.03553390593" y2="414.53553390593" style="stroke:#0bf;stroke-width:2;"/>
   <line x1="712.5" y1="411" x2="716.03553390593" y2="407.46446609407" style="stroke:#0bf;stroke-width:2;"/>
   <line x1="596" y1="265" x2="599.53553390593" y2="268.53553390593" style="stroke:#0bf;stroke-width:2;"/>
   <line x1="596" y1="265" x2="599.53553390593" y2="261.46446609407" style="stroke:#0bf;stroke-width:2;"/>
   <line x1="720" y1="391" x2="710" y2="391" style="stroke:#333;stroke-width:1;"/>
   <line x1="717" y1="677" x2="727" y2="677" style="stroke:#333;stroke-width:1;"/>
   <line x1="710" y1="391" x2="717" y2="677" style="stroke:#333;stroke-width:1;"/>
   <line x1="712.5" y1="391" x2="716.03553390593" y2="394.53553390593" style="stroke:#333;stroke-width:2;"/>
   <line x1="712.5" y1="391" x2="716.03553390593" y2="387.46446609407" style="stroke:#333;stroke-width:2;"/>
   <line x1="722" y1="677" x2="718.46446609407" y2="680.53553390593" style="stroke:#333;stroke-width:2;"/>
   <line x1="722" y1="677" x2="718.46446609407" y2="673.46446609407" style="stroke:#333;stroke-width:2;"/>
   <line x1="220" y1="1134" x2="230" y2="1134" style="stroke:#333;stroke-width:1;"/>
   <line x1="387" y1="908" x2="397" y2="908" style="stroke:#333;stroke-width:1;"/>
   <line x1="230" y1="1134" x2="387" y2="908" style="stroke:#333;stroke-width:1;"/>
   <line x1="227.5" y1="1134" x2="223.96446609407" y2="1137.5355339059" style="stroke:#333;stroke-width:2;"/>
   <line x1="227.5" y1="1134" x2="223.96446609407" y2="1130.4644660941" style="stroke:#333;stroke-width:2;"/>
   <line x1="392" y1="908" x2="388.46446609407" y2="911.53553390593" style="stroke:#333;stroke-width:2;"/>
   <line x1="392" y1="908" x2="388.46446609407" y2="904.46446609407" style="stroke:#333;stroke-width:2;"/>
   <line x1="1029" y1="673" x2="1019" y2="673" style="stroke:#0b0;stroke-width:1;"/>
   <line x1="839" y1="677" x2="829" y2="677" style="stroke:#0b0;stroke-width:1;"/>
   <line x1="1019" y1="673" x2="839" y2="677" style="stroke:#0b0;stroke-width:1;"/>
   <line x1="1021.5" y1="673" x2="1025.0355339059" y2="676.53553390593" style="stroke:#0b0;stroke-width:2;"/>
   <line x1="1021.5" y1="673" x2="1025.0355339059" y2="669.46446609407" style="stroke:#0b0;stroke-width:2;"/>
   <line x1="834" y1="677" x2="837.53553390593" y2="680.53553390593" style="stroke:#0b0;stroke-width:2;"/>
   <line x1="834" y1="677" x2="837.53553390593" y2="673.46446609407" style="stroke:#0b0;stroke-width:2;"/>
   <line x1="1148" y1="98" x2="1138" y2="98" style="stroke:#c00;stroke-width:1;"/>
   <line x1="929" y1="71" x2="919" y2="71" style="stroke:#c00;stroke-width:1;"/>
   <line x1="1138" y1="98" x2="929" y2="71" style="stroke:#c00;stroke-width:1;"/>
   <line x1="1140.5" y1="98" x2="1144.0355339059" y2="101.53553390593" style="stroke:#c00;stroke-width:2;"/>
   <line x1="1140.5" y1="98" x2="1144.0355339059" y2="94.464466094067" style="stroke:#c00;stroke-width:2;"/>
   <line x1="924" y1="71" x2="927.53553390593" y2="74.535533905933" style="stroke:#c00;stroke-width:2;"/>
   <line x1="924" y1="71" x2="927.53553390593" y2="67.464466094067" style="stroke:#c00;stroke-width:2;"/>
   <line x1="1077" y1="1016" x2="1067" y2="1016" style="stroke:#cb0;stroke-width:1;"/>
   <line x1="856" y1="1019" x2="846" y2="1019" style="stroke:#cb0;stroke-width:1;"/>
   <line x1="1067" y1="1016" x2="856" y2="1019" style="stroke:#cb0;stroke-width:1;"/>
   <line x1="1069.5" y1="1016" x2="1073.0355339059" y2="1019.5355339059" style="stroke:#cb0;stroke-width:2;"/>
   <line x1="1069.5" y1="1016" x2="1073.0355339059" y2="1012.4644660941" style="stroke:#cb0;stroke-width:2;"/>
   <line x1="851" y1="1019" x2="854.53553390593" y2="1022.5355339059" style="stroke:#cb0;stroke-width:2;"/>
   <line x1="851" y1="1019" x2="854.53553390593" y2="1015.4644660941" style="stroke:#cb0;stroke-width:2;"/>
   <line x1="404" y1="405" x2="394" y2="405" style="stroke:#333;stroke-width:1;"/>
   <line x1="215" y1="422" x2="205" y2="422" style="stroke:#333;stroke-width:1;"/>
   <line x1="394" y1="405" x2="215" y2="422" style="stroke:#333;stroke-width:1;"/>
   <line x1="396.5" y1="405" x2="400.03553390593" y2="408.53553390593" style="stroke:#333;stroke-width:2;"/>
   <line x1="396.5" y1="405" x2="400.03553390593" y2="401.46446609407" style="stroke:#333;stroke-width:2;"/>
   <line x1="210" y1="422" x2="213.53553390593" y2="425.53553390593" style="stroke:#333;stroke-width:2;"/>
   <line x1="210" y1="422" x2="213.53553390593" y2="418.46446609407" style="stroke:#333;stroke-width:2;"/>
   <line x1="404" y1="385" x2="394" y2="385" style="stroke:#cb0;stroke-width:1;"/>
   <line x1="217" y1="205" x2="207" y2="205" style="stroke:#cb0;stroke-width:1;"/>
   <line x1="394" y1="385" x2="217" y2="205" style="stroke:#cb0;stroke-width:1;"/>
   <line x1="396.5" y1="385" x2="400.03553390593" y2="388.53553390593" style="stroke:#cb0;stroke-width:2;"/>
   <line x1="396.5" y1="385" x2="400.03553390593" y2="381.46446609407" style="stroke:#cb0;stroke-width:2;"/>
   <line x1="212" y1="205" x2="215.53553390593" y2="208.53553390593" style="stroke:#cb0;stroke-width:2;"/>
   <line x1="212" y1="205" x2="215.53553390593" y2="201.46446609407" style="stroke:#cb0;stroke-width:2;"/>
   <line x1="829" y1="757" x2="839" y2="757" style="stroke:#0b0;stroke-width:1;"/>
   <line x1="820" y1="71" x2="830" y2="71" style="stroke:#0b0;stroke-width:1;"/>
   <line x1="839" y1="757" x2="820" y2="71" style="stroke:#0b0;stroke-width:1;"/>
   <line x1="836.5" y1="757" x2="832.96446609407" y2="760.53553390593" style="stroke:#0b0;stroke-width:2;"/>
   <line x1="836.5" y1="757" x2="832.96446609407" y2="753.46446609407" style="stroke:#0b0;stroke-width:2;"/>
   <line x1="825" y1="71" x2="821.46446609407" y2="74.535533905933" style="stroke:#0b0;stroke-width:2;"/>
   <line x1="825" y1="71" x2="821.46446609407" y2="67.464466094067" style="stroke:#0b0;stroke-width:2;"/>
   <line x1="829" y1="777" x2="839" y2="777" style="stroke:#333;stroke-width:1;"/>
   <line x1="1280" y1="790" x2="1290" y2="790" style="stroke:#333;stroke-width:1;"/>
   <line x1="839" y1="777" x2="1280" y2="790" style="stroke:#333;stroke-width:1;"/>
   <line x1="836.5" y1="777" x2="832.96446609407" y2="780.53553390593" style="stroke:#333;stroke-width:2;"/>
   <line x1="836.5" y1="777" x2="832.96446609407" y2="773.46446609407" style="stroke:#333;stroke-width:2;"/>
   <line x1="1285" y1="790" x2="1281.4644660941" y2="793.53553390593" style="stroke:#333;stroke-width:2;"/>
   <line x1="1285" y1="790" x2="1281.4644660941" y2="786.46446609407" style="stroke:#333;stroke-width:2;"/>
   <rect width="187" height="20" x="400" y="23" style="fill:#007;stroke:black;"/>
   <text width="187" height="20" x="405" y="37" style="fill:#fff;" font-family="Arial" font-size="16px"> bajas_productos</text>
   <rect width="187" height="20" x="400" y="43" style="fill:#aea;stroke:black;"/>
   <text width="187" height="20" x="405" y="57" style="fill:black;" font-family="Arial" font-size="16px">id_baja_producto</text>
   <rect width="187" height="20" x="400" y="63" style="fill:none;stroke:black;"/>
   <text width="187" height="20" x="405" y="77" style="fill:black;" font-family="Arial" font-size="16px">tipo_baja</text>
   <rect width="187" height="20" x="400" y="83" style="fill:none;stroke:black;"/>
   <text width="187" height="20" x="405" y="97" style="fill:black;" font-family="Arial" font-size="16px">cantidad</text>
   <rect width="187" height="20" x="400" y="103" style="fill:none;stroke:black;"/>
   <text width="187" height="20" x="405" y="117" style="fill:black;" font-family="Arial" font-size="16px">precio_producto</text>
   <rect width="187" height="20" x="400" y="123" style="fill:none;stroke:black;"/>
   <text width="187" height="20" x="405" y="137" style="fill:black;" font-family="Arial" font-size="16px">id_presentacion_producto</text>
   <rect width="161" height="20" x="44" y="392" style="fill:#007;stroke:black;"/>
   <text width="161" height="20" x="49" y="406" style="fill:#fff;" font-family="Arial" font-size="16px"> categorias_productos</text>
   <rect width="161" height="20" x="44" y="412" style="fill:#aea;stroke:black;"/>
   <text width="161" height="20" x="49" y="426" style="fill:black;" font-family="Arial" font-size="16px">id_categoria_producto</text>
   <rect width="161" height="20" x="44" y="432" style="fill:none;stroke:black;"/>
   <text width="161" height="20" x="49" y="446" style="fill:black;" font-family="Arial" font-size="16px">nombre</text>
   <rect width="89" height="20" x="830" y="41" style="fill:#007;stroke:black;"/>
   <text width="89" height="20" x="835" y="55" style="fill:#fff;" font-family="Arial" font-size="16px"> clientes</text>
   <rect width="89" height="20" x="830" y="61" style="fill:none;stroke:black;"/>
   <text width="89" height="20" x="835" y="75" style="fill:black;" font-family="Arial" font-size="16px">id_cliente</text>
   <rect width="89" height="20" x="830" y="81" style="fill:none;stroke:black;"/>
   <text width="89" height="20" x="835" y="95" style="fill:black;" font-family="Arial" font-size="16px">nombre</text>
   <rect width="89" height="20" x="830" y="101" style="fill:none;stroke:black;"/>
   <text width="89" height="20" x="835" y="115" style="fill:black;" font-family="Arial" font-size="16px">telefonos</text>
   <rect width="89" height="20" x="830" y="121" style="fill:none;stroke:black;"/>
   <text width="89" height="20" x="835" y="135" style="fill:black;" font-family="Arial" font-size="16px">direccion</text>
   <rect width="89" height="20" x="830" y="141" style="fill:none;stroke:black;"/>
   <text width="89" height="20" x="835" y="155" style="fill:black;" font-family="Arial" font-size="16px">con_credito</text>
   <rect width="110" height="20" x="397" y="878" style="fill:#007;stroke:black;"/>
   <text width="110" height="20" x="402" y="892" style="fill:#fff;" font-family="Arial" font-size="16px"> compras</text>
   <rect width="110" height="20" x="397" y="898" style="fill:#aea;stroke:black;"/>
   <text width="110" height="20" x="402" y="912" style="fill:black;" font-family="Arial" font-size="16px">id_compra</text>
   <rect width="110" height="20" x="397" y="918" style="fill:none;stroke:black;"/>
   <text width="110" height="20" x="402" y="932" style="fill:black;" font-family="Arial" font-size="16px">fecha_compra</text>
   <rect width="110" height="20" x="397" y="938" style="fill:none;stroke:black;"/>
   <text width="110" height="20" x="402" y="952" style="fill:black;" font-family="Arial" font-size="16px">fecha_recibido</text>
   <rect width="110" height="20" x="397" y="958" style="fill:none;stroke:black;"/>
   <text width="110" height="20" x="402" y="972" style="fill:black;" font-family="Arial" font-size="16px">total_credito</text>
   <rect width="110" height="20" x="397" y="978" style="fill:none;stroke:black;"/>
   <text width="110" height="20" x="402" y="992" style="fill:black;" font-family="Arial" font-size="16px">total_contado</text>
   <rect width="110" height="20" x="397" y="998" style="fill:none;stroke:black;"/>
   <text width="110" height="20" x="402" y="1012" style="fill:black;" font-family="Arial" font-size="16px">id_proveedor</text>
   <rect width="133" height="20" x="52" y="766" style="fill:#007;stroke:black;"/>
   <text width="133" height="20" x="57" y="780" style="fill:#fff;" font-family="Arial" font-size="16px"> detalles_compras</text>
   <rect width="133" height="20" x="52" y="786" style="fill:#aea;stroke:black;"/>
   <text width="133" height="20" x="57" y="800" style="fill:black;" font-family="Arial" font-size="16px">id_detalle_compra</text>
   <rect width="133" height="20" x="52" y="806" style="fill:none;stroke:black;"/>
   <text width="133" height="20" x="57" y="820" style="fill:black;" font-family="Arial" font-size="16px">cantidad_pedida</text>
   <rect width="133" height="20" x="52" y="826" style="fill:none;stroke:black;"/>
   <text width="133" height="20" x="57" y="840" style="fill:black;" font-family="Arial" font-size="16px">cantidad_recibida</text>
   <rect width="133" height="20" x="52" y="846" style="fill:none;stroke:black;"/>
   <text width="133" height="20" x="57" y="860" style="fill:black;" font-family="Arial" font-size="16px">valor_producto</text>
   <rect width="133" height="20" x="52" y="866" style="fill:none;stroke:black;"/>
   <text width="133" height="20" x="57" y="880" style="fill:black;" font-family="Arial" font-size="16px">iva</text>
   <rect width="133" height="20" x="52" y="886" style="fill:none;stroke:black;"/>
   <text width="133" height="20" x="57" y="900" style="fill:black;" font-family="Arial" font-size="16px">id_pedido</text>
   <rect width="133" height="20" x="52" y="906" style="fill:none;stroke:black;"/>
   <text width="133" height="20" x="57" y="920" style="fill:black;" font-family="Arial" font-size="16px">id_producto</text>
   <rect width="229" height="20" x="499" y="1149" style="fill:#007;stroke:black;"/>
   <text width="229" height="20" x="504" y="1163" style="fill:#fff;" font-family="Arial" font-size="16px"> detalles_devoluciones_compras</text>
   <rect width="229" height="20" x="499" y="1169" style="fill:#aea;stroke:black;"/>
   <text width="229" height="20" x="504" y="1183" style="fill:black;" font-family="Arial" font-size="16px">id_detalle_devolucion_compra</text>
   <rect width="229" height="20" x="499" y="1189" style="fill:none;stroke:black;"/>
   <text width="229" height="20" x="504" y="1203" style="fill:black;" font-family="Arial" font-size="16px">id_devolucion_compra</text>
   <rect width="229" height="20" x="499" y="1209" style="fill:none;stroke:black;"/>
   <text width="229" height="20" x="504" y="1223" style="fill:black;" font-family="Arial" font-size="16px">id_producto</text>
   <rect width="229" height="20" x="499" y="1229" style="fill:none;stroke:black;"/>
   <text width="229" height="20" x="504" y="1243" style="fill:black;" font-family="Arial" font-size="16px">cantidad_producto</text>
   <rect width="215" height="20" x="1404" y="582" style="fill:#007;stroke:black;"/>
   <text width="215" height="20" x="1409" y="596" style="fill:#fff;" font-family="Arial" font-size="16px"> detalles_devoluciones_ventas</text>
   <rect width="215" height="20" x="1404" y="602" style="fill:#aea;stroke:black;"/>
   <text width="215" height="20" x="1409" y="616" style="fill:black;" font-family="Arial" font-size="16px">id_detalle_devolucion_venta</text>
   <rect width="215" height="20" x="1404" y="622" style="fill:none;stroke:black;"/>
   <text width="215" height="20" x="1409" y="636" style="fill:black;" font-family="Arial" font-size="16px">id_devolucion_venta</text>
   <rect width="215" height="20" x="1404" y="642" style="fill:none;stroke:black;"/>
   <text width="215" height="20" x="1409" y="656" style="fill:black;" font-family="Arial" font-size="16px">id_producto</text>
   <rect width="215" height="20" x="1404" y="662" style="fill:none;stroke:black;"/>
   <text width="215" height="20" x="1409" y="676" style="fill:black;" font-family="Arial" font-size="16px">cantidad_producto</text>
   <rect width="138" height="20" x="720" y="261" style="fill:#007;stroke:black;"/>
   <text width="138" height="20" x="725" y="275" style="fill:#fff;" font-family="Arial" font-size="16px"> detalles_ventas</text>
   <rect width="138" height="20" x="720" y="281" style="fill:#aea;stroke:black;"/>
   <text width="138" height="20" x="725" y="295" style="fill:black;" font-family="Arial" font-size="16px">id_detalle_venta</text>
   <rect width="138" height="20" x="720" y="301" style="fill:none;stroke:black;"/>
   <text width="138" height="20" x="725" y="315" style="fill:black;" font-family="Arial" font-size="16px">cantidad_producto</text>
   <rect width="138" height="20" x="720" y="321" style="fill:none;stroke:black;"/>
   <text width="138" height="20" x="725" y="335" style="fill:black;" font-family="Arial" font-size="16px">valor_producto</text>
   <rect width="138" height="20" x="720" y="341" style="fill:none;stroke:black;"/>
   <text width="138" height="20" x="725" y="355" style="fill:black;" font-family="Arial" font-size="16px">descuento</text>
   <rect width="138" height="20" x="720" y="361" style="fill:none;stroke:black;"/>
   <text width="138" height="20" x="725" y="375" style="fill:black;" font-family="Arial" font-size="16px">iva</text>
   <rect width="138" height="20" x="720" y="381" style="fill:none;stroke:black;"/>
   <text width="138" height="20" x="725" y="395" style="fill:black;" font-family="Arial" font-size="16px">id_venta</text>
   <rect width="138" height="20" x="720" y="401" style="fill:none;stroke:black;"/>
   <text width="138" height="20" x="725" y="415" style="fill:black;" font-family="Arial" font-size="16px">id_producto</text>
   <rect width="170" height="20" x="50" y="1084" style="fill:#007;stroke:black;"/>
   <text width="170" height="20" x="55" y="1098" style="fill:#fff;" font-family="Arial" font-size="16px"> devoluciones_compras</text>
   <rect width="170" height="20" x="50" y="1104" style="fill:#aea;stroke:black;"/>
   <text width="170" height="20" x="55" y="1118" style="fill:black;" font-family="Arial" font-size="16px">id_devolucion_compra</text>
   <rect width="170" height="20" x="50" y="1124" style="fill:none;stroke:black;"/>
   <text width="170" height="20" x="55" y="1138" style="fill:black;" font-family="Arial" font-size="16px">id_compra</text>
   <rect width="170" height="20" x="50" y="1144" style="fill:none;stroke:black;"/>
   <text width="170" height="20" x="55" y="1158" style="fill:black;" font-family="Arial" font-size="16px">fecha_devolucion</text>
   <rect width="155" height="20" x="1029" y="623" style="fill:#007;stroke:black;"/>
   <text width="155" height="20" x="1034" y="637" style="fill:#fff;" font-family="Arial" font-size="16px"> devoluciones_ventas</text>
   <rect width="155" height="20" x="1029" y="643" style="fill:#aea;stroke:black;"/>
   <text width="155" height="20" x="1034" y="657" style="fill:black;" font-family="Arial" font-size="16px">id_devolucion_venta</text>
   <rect width="155" height="20" x="1029" y="663" style="fill:none;stroke:black;"/>
   <text width="155" height="20" x="1034" y="677" style="fill:black;" font-family="Arial" font-size="16px">id_venta</text>
   <rect width="155" height="20" x="1029" y="683" style="fill:none;stroke:black;"/>
   <text width="155" height="20" x="1034" y="697" style="fill:black;" font-family="Arial" font-size="16px">fecha</text>
   <rect width="114" height="20" x="1148" y="48" style="fill:#007;stroke:black;"/>
   <text width="114" height="20" x="1153" y="62" style="fill:#fff;" font-family="Arial" font-size="16px"> pagos_clientes</text>
   <rect width="114" height="20" x="1148" y="68" style="fill:#aea;stroke:black;"/>
   <text width="114" height="20" x="1153" y="82" style="fill:black;" font-family="Arial" font-size="16px">id_pago_cliente</text>
   <rect width="114" height="20" x="1148" y="88" style="fill:none;stroke:black;"/>
   <text width="114" height="20" x="1153" y="102" style="fill:black;" font-family="Arial" font-size="16px">id_cliente</text>
   <rect width="114" height="20" x="1148" y="108" style="fill:none;stroke:black;"/>
   <text width="114" height="20" x="1153" y="122" style="fill:black;" font-family="Arial" font-size="16px">valor_pago</text>
   <rect width="114" height="20" x="1148" y="128" style="fill:none;stroke:black;"/>
   <text width="114" height="20" x="1153" y="142" style="fill:black;" font-family="Arial" font-size="16px">fecha_pago</text>
   <rect width="147" height="20" x="1077" y="966" style="fill:#007;stroke:black;"/>
   <text width="147" height="20" x="1082" y="980" style="fill:#fff;" font-family="Arial" font-size="16px"> pagos_proveedores</text>
   <rect width="147" height="20" x="1077" y="986" style="fill:#aea;stroke:black;"/>
   <text width="147" height="20" x="1082" y="1000" style="fill:black;" font-family="Arial" font-size="16px">id_pago_proveedor</text>
   <rect width="147" height="20" x="1077" y="1006" style="fill:none;stroke:black;"/>
   <text width="147" height="20" x="1082" y="1020" style="fill:black;" font-family="Arial" font-size="16px">id_proveedor</text>
   <rect width="147" height="20" x="1077" y="1026" style="fill:none;stroke:black;"/>
   <text width="147" height="20" x="1082" y="1040" style="fill:black;" font-family="Arial" font-size="16px">valor_pago</text>
   <rect width="147" height="20" x="1077" y="1046" style="fill:none;stroke:black;"/>
   <text width="147" height="20" x="1082" y="1060" style="fill:black;" font-family="Arial" font-size="16px">fecha_pago</text>
   <rect width="89" height="20" x="1290" y="760" style="fill:#007;stroke:black;"/>
   <text width="89" height="20" x="1295" y="774" style="fill:#fff;" font-family="Arial" font-size="16px"> personal</text>
   <rect width="89" height="20" x="1290" y="780" style="fill:none;stroke:black;"/>
   <text width="89" height="20" x="1295" y="794" style="fill:black;" font-family="Arial" font-size="16px">id_persona</text>
   <rect width="89" height="20" x="1290" y="800" style="fill:none;stroke:black;"/>
   <text width="89" height="20" x="1295" y="814" style="fill:black;" font-family="Arial" font-size="16px">nombre</text>
   <rect width="89" height="20" x="1290" y="820" style="fill:none;stroke:black;"/>
   <text width="89" height="20" x="1295" y="834" style="fill:black;" font-family="Arial" font-size="16px">telefono</text>
   <rect width="89" height="20" x="1290" y="840" style="fill:none;stroke:black;"/>
   <text width="89" height="20" x="1295" y="854" style="fill:black;" font-family="Arial" font-size="16px">direccion</text>
   <rect width="89" height="20" x="1290" y="860" style="fill:none;stroke:black;"/>
   <text width="89" height="20" x="1295" y="874" style="fill:black;" font-family="Arial" font-size="16px">perfil</text>
   <rect width="89" height="20" x="1290" y="880" style="fill:none;stroke:black;"/>
   <text width="89" height="20" x="1295" y="894" style="fill:black;" font-family="Arial" font-size="16px">contrasena</text>
   <rect width="194" height="20" x="13" y="175" style="fill:#007;stroke:black;"/>
   <text width="194" height="20" x="18" y="189" style="fill:#fff;" font-family="Arial" font-size="16px"> presentaciones_productos</text>
   <rect width="194" height="20" x="13" y="195" style="fill:#aea;stroke:black;"/>
   <text width="194" height="20" x="18" y="209" style="fill:black;" font-family="Arial" font-size="16px">id_presentacion_producto</text>
   <rect width="194" height="20" x="13" y="215" style="fill:none;stroke:black;"/>
   <text width="194" height="20" x="18" y="229" style="fill:black;" font-family="Arial" font-size="16px">descripcion</text>
   <rect width="187" height="20" x="404" y="235" style="fill:#007;stroke:black;"/>
   <text width="187" height="20" x="409" y="249" style="fill:#fff;" font-family="Arial" font-size="16px"> productos</text>
   <rect width="187" height="20" x="404" y="255" style="fill:#aea;stroke:black;"/>
   <text width="187" height="20" x="409" y="269" style="fill:black;" font-family="Arial" font-size="16px">id_producto</text>
   <rect width="187" height="20" x="404" y="275" style="fill:none;stroke:black;"/>
   <text width="187" height="20" x="409" y="289" style="fill:black;" font-family="Arial" font-size="16px">nombre</text>
   <rect width="187" height="20" x="404" y="295" style="fill:none;stroke:black;"/>
   <text width="187" height="20" x="409" y="309" style="fill:black;" font-family="Arial" font-size="16px">precio</text>
   <rect width="187" height="20" x="404" y="315" style="fill:none;stroke:black;"/>
   <text width="187" height="20" x="409" y="329" style="fill:black;" font-family="Arial" font-size="16px">cantidad_disponible</text>
   <rect width="187" height="20" x="404" y="335" style="fill:none;stroke:black;"/>
   <text width="187" height="20" x="409" y="349" style="fill:black;" font-family="Arial" font-size="16px">cantidad_minima</text>
   <rect width="187" height="20" x="404" y="355" style="fill:none;stroke:black;"/>
   <text width="187" height="20" x="409" y="369" style="fill:black;" font-family="Arial" font-size="16px">cantidad_maxima</text>
   <rect width="187" height="20" x="404" y="375" style="fill:none;stroke:black;"/>
   <text width="187" height="20" x="409" y="389" style="fill:black;" font-family="Arial" font-size="16px">id_presentacion_producto</text>
   <rect width="187" height="20" x="404" y="395" style="fill:none;stroke:black;"/>
   <text width="187" height="20" x="409" y="409" style="fill:black;" font-family="Arial" font-size="16px">id_categoria_producto</text>
   <rect width="100" height="20" x="746" y="989" style="fill:#007;stroke:black;"/>
   <text width="100" height="20" x="751" y="1003" style="fill:#fff;" font-family="Arial" font-size="16px"> proveedores</text>
   <rect width="100" height="20" x="746" y="1009" style="fill:none;stroke:black;"/>
   <text width="100" height="20" x="751" y="1023" style="fill:black;" font-family="Arial" font-size="16px">id_proveedor</text>
   <rect width="100" height="20" x="746" y="1029" style="fill:none;stroke:black;"/>
   <text width="100" height="20" x="751" y="1043" style="fill:black;" font-family="Arial" font-size="16px">nombre</text>
   <rect width="100" height="20" x="746" y="1049" style="fill:none;stroke:black;"/>
   <text width="100" height="20" x="751" y="1063" style="fill:black;" font-family="Arial" font-size="16px">telefono</text>
   <rect width="100" height="20" x="746" y="1069" style="fill:none;stroke:black;"/>
   <text width="100" height="20" x="751" y="1083" style="fill:black;" font-family="Arial" font-size="16px">correo</text>
   <rect width="102" height="20" x="727" y="647" style="fill:#007;stroke:black;"/>
   <text width="102" height="20" x="732" y="661" style="fill:#fff;" font-family="Arial" font-size="16px"> ventas</text>
   <rect width="102" height="20" x="727" y="667" style="fill:#aea;stroke:black;"/>
   <text width="102" height="20" x="732" y="681" style="fill:black;" font-family="Arial" font-size="16px">id_venta</text>
   <rect width="102" height="20" x="727" y="687" style="fill:none;stroke:black;"/>
   <text width="102" height="20" x="732" y="701" style="fill:black;" font-family="Arial" font-size="16px">fecha_venta</text>
   <rect width="102" height="20" x="727" y="707" style="fill:none;stroke:black;"/>
   <text width="102" height="20" x="732" y="721" style="fill:black;" font-family="Arial" font-size="16px">total_credito</text>
   <rect width="102" height="20" x="727" y="727" style="fill:none;stroke:black;"/>
   <text width="102" height="20" x="732" y="741" style="fill:black;" font-family="Arial" font-size="16px">total_contado</text>
   <rect width="102" height="20" x="727" y="747" style="fill:none;stroke:black;"/>
   <text width="102" height="20" x="732" y="761" style="fill:black;" font-family="Arial" font-size="16px">id_cliente</text>
   <rect width="102" height="20" x="727" y="767" style="fill:none;stroke:black;"/>
   <text width="102" height="20" x="732" y="781" style="fill:black;" font-family="Arial" font-size="16px">id_vendedor</text>
</svg>
